<?xml version="1.0" encoding="UTF-8" standalone="no"?>
<!DOCTYPE svg PUBLIC "-//W3C//DTD SVG 1.1//EN" "http://www.w3.org/Graphics/SVG/1.1/DTD/svg11.dtd">
<svg width="100%" height="100%" viewBox="0 0 1052 133" version="1.1" xmlns="http://www.w3.org/2000/svg" xmlns:xlink="http://www.w3.org/1999/xlink" xml:space="preserve" xmlns:serif="http://www.serif.com/" style="fill-rule:evenodd;clip-rule:evenodd;stroke-linejoin:round;stroke-miterlimit:2;">
    <g transform="matrix(1.53161,0,0,1.53161,-1218.49,-2084.27)">
        <g transform="matrix(0.721651,0,5.64938e-33,0.721651,168.833,381.83)">
            <path d="M1062.11,1474.83L1037.24,1438.46C1043.73,1436.04 1049,1432.23 1053.02,1427.05C1057.04,1421.86 1059.06,1415.14 1059.06,1406.9L1059.06,1406.61C1059.06,1396.04 1055.68,1387.8 1048.95,1381.88C1042.21,1375.97 1032.78,1373.01 1020.66,1373.01L974.111,1373.01L974.111,1474.83L996.511,1474.83L996.511,1442.25L1014.11,1442.25L1035.93,1474.83L1062.11,1474.83ZM1036.37,1408.07C1036.37,1412.43 1034.89,1415.92 1031.93,1418.54C1028.97,1421.16 1024.73,1422.46 1019.2,1422.46L996.511,1422.46L996.511,1393.23L1018.76,1393.23C1024.29,1393.23 1028.61,1394.44 1031.71,1396.87C1034.81,1399.29 1036.37,1402.93 1036.37,1407.77L1036.37,1408.07Z" style="fill:rgb(36,98,233);fill-rule:nonzero;"/>
        </g>
        <g transform="matrix(0.721651,0,5.64938e-33,0.721651,168.833,381.83)">
            <path d="M1178.47,1474.83L1134.84,1372.28L1114.18,1372.28L1070.55,1474.83L1093.38,1474.83L1102.69,1451.99L1145.74,1451.99L1155.05,1474.83L1178.47,1474.83ZM1137.74,1432.21L1110.69,1432.21L1124.22,1399.19L1137.74,1432.21Z" style="fill:rgb(36,98,233);fill-rule:nonzero;"/>
        </g>
        <g transform="matrix(0.721651,0,5.64938e-33,0.721651,168.833,381.83)">
            <path d="M1282.18,1474.83L1257.31,1438.46C1263.8,1436.04 1269.06,1432.23 1273.09,1427.05C1277.11,1421.86 1279.12,1415.14 1279.12,1406.9L1279.12,1406.61C1279.12,1396.04 1275.75,1387.8 1269.01,1381.88C1262.28,1375.97 1252.84,1373.01 1240.72,1373.01L1194.18,1373.01L1194.18,1474.83L1216.58,1474.83L1216.58,1442.25L1234.18,1442.25L1256,1474.83L1282.18,1474.83ZM1256.43,1408.07C1256.43,1412.43 1254.95,1415.92 1252,1418.54C1249.04,1421.16 1244.8,1422.46 1239.27,1422.46L1216.58,1422.46L1216.58,1393.23L1238.83,1393.23C1244.36,1393.23 1248.67,1394.44 1251.78,1396.87C1254.88,1399.29 1256.43,1402.93 1256.43,1407.77L1256.43,1408.07Z" style="fill:rgb(36,98,233);fill-rule:nonzero;"/>
        </g>
        <g transform="matrix(0.721651,0,5.64938e-33,0.721651,168.833,381.83)">
            <path d="M1389.52,1373.01L1364.07,1373.01L1339.34,1413.88L1315.05,1373.01L1288.87,1373.01L1327.99,1434.68L1327.99,1474.83L1350.39,1474.83L1350.39,1434.25L1389.52,1373.01Z" style="fill:rgb(36,98,233);fill-rule:nonzero;"/>
        </g>
        <g transform="matrix(0.721651,0,5.64938e-33,0.721651,567.066,381.83)">
            <g transform="matrix(145.451,0,0,145.451,1274.9,1474.83)">
            </g>
            <text x="961.893px" y="1474.83px" style="font-family:'Gotham-Bold', 'Gotham';font-weight:700;font-size:145.451px;fill:rgb(36,98,233);">ABS</text>
        </g>
        <g transform="matrix(0.249658,0,1.95443e-33,0.249658,726.706,1319.38)">
            <path d="M280.143,166.051L280.143,340.739L310.969,340.793L310.969,477.916L400.748,477.916L400.748,500.877L286.993,500.877L286.993,371.773C289.162,370.438 290.485,368.075 290.487,365.528C290.486,361.474 287.2,358.189 283.147,358.189C279.094,358.19 275.809,361.475 275.808,365.528C275.81,368.417 277.507,371.036 280.143,372.219L280.143,507.727L434.255,507.727C463.305,507.727 489.247,498.151 511.558,479.208C534.573,459.876 546.309,434.852 546.309,405.062C546.309,373.694 533.248,349.538 508.12,333.715C528.293,318.055 538.71,295.942 538.71,268.269C538.71,239.044 526.82,213.915 503.556,193.712L503.537,193.697L503.521,193.682C481.78,175.309 455.979,166.051 426.655,166.051L280.143,166.051ZM286.993,172.901L400.748,172.901L400.748,196.44L310.969,196.44L310.969,298.461C308.532,299.721 307.001,302.235 307,304.979C307.001,309.032 310.287,312.317 314.34,312.317C318.393,312.317 321.678,309.031 321.679,304.979C321.679,302.278 320.196,299.796 317.819,298.516L317.819,203.29L400.748,203.29L400.748,233.697L426.655,233.697C438.52,233.697 448.719,237.019 457.68,243.74L457.708,243.762L457.737,243.782C466.548,250.115 470.616,257.906 470.616,268.269C470.616,278.633 466.547,286.426 457.737,292.758L457.708,292.778L457.68,292.8C448.719,299.521 438.52,302.843 426.655,302.843L347.79,302.843L347.79,233.697L373.249,233.697C374.488,236.194 377.033,237.773 379.82,237.775C381.767,237.775 383.634,237.002 385.01,235.625C386.387,234.248 387.16,232.381 387.16,230.435C387.16,228.488 386.387,226.621 385.01,225.244C383.634,223.868 381.767,223.094 379.82,223.094C377.165,223.096 374.719,224.531 373.421,226.847L340.94,226.847L340.94,309.693L400.748,309.693L400.748,363.638L340.94,363.638L340.94,471.066L317.819,471.066L317.819,340.805L373.339,340.902C374.61,343.303 377.103,344.806 379.82,344.808C381.767,344.809 383.634,344.035 385.01,342.659C386.387,341.282 387.16,339.415 387.16,337.468C387.16,335.521 386.387,333.654 385.01,332.278C383.634,330.901 381.767,330.128 379.82,330.128C377.097,330.131 374.599,331.641 373.331,334.052L286.993,333.903L286.993,172.901ZM347.79,370.488L434.255,370.488C446.409,370.488 456.739,373.813 465.674,380.497C474.586,387.759 478.662,395.695 478.662,405.062C478.662,415.101 474.588,422.945 465.728,429.591C456.78,436.301 446.433,439.634 434.255,439.634L375.062,439.634C373.793,437.227 371.297,435.721 368.576,435.718C366.63,435.718 364.762,436.492 363.386,437.868C362.009,439.245 361.236,441.112 361.236,443.059C361.236,445.005 362.009,446.873 363.386,448.249C364.762,449.626 366.63,450.399 368.576,450.399C371.297,450.397 373.793,448.89 375.062,446.484L400.748,446.484L400.748,471.066L347.79,471.066L347.79,370.488Z" style="fill:rgb(36,98,233);fill-rule:nonzero;"/>
        </g>
        <g transform="matrix(0.249658,0,1.95443e-33,0.249658,726.706,1319.38)">
            <path d="M280.143,166.051L280.143,340.739L310.969,340.793L310.969,477.916L400.748,477.916L400.748,500.877L286.993,500.877L286.993,371.773C289.162,370.438 290.485,368.075 290.487,365.528C290.486,361.474 287.2,358.189 283.147,358.189C279.094,358.19 275.809,361.475 275.808,365.528C275.81,368.417 277.507,371.036 280.143,372.219L280.143,507.727L434.255,507.727C463.305,507.727 489.247,498.151 511.558,479.208C534.573,459.876 546.309,434.852 546.309,405.062C546.309,373.694 533.248,349.538 508.12,333.715C528.293,318.055 538.71,295.942 538.71,268.269C538.71,239.044 526.82,213.915 503.556,193.712L503.537,193.697L503.521,193.682C481.78,175.309 455.979,166.051 426.655,166.051L280.143,166.051ZM286.993,172.901L400.748,172.901L400.748,196.44L310.969,196.44L310.969,298.461C308.532,299.721 307.001,302.235 307,304.979C307.001,309.032 310.287,312.317 314.34,312.317C318.393,312.317 321.678,309.031 321.679,304.979C321.679,302.278 320.196,299.796 317.819,298.516L317.819,203.29L400.748,203.29L400.748,233.697L426.655,233.697C438.52,233.697 448.719,237.019 457.68,243.74L457.708,243.762L457.737,243.782C466.548,250.115 470.616,257.906 470.616,268.269C470.616,278.633 466.547,286.426 457.737,292.758L457.708,292.778L457.68,292.8C448.719,299.521 438.52,302.843 426.655,302.843L347.79,302.843L347.79,233.697L373.249,233.697C374.488,236.194 377.033,237.773 379.82,237.775C381.767,237.775 383.634,237.002 385.01,235.625C386.387,234.248 387.16,232.381 387.16,230.435C387.16,228.488 386.387,226.621 385.01,225.244C383.634,223.868 381.767,223.094 379.82,223.094C377.165,223.096 374.719,224.531 373.421,226.847L340.94,226.847L340.94,309.693L400.748,309.693L400.748,363.638L340.94,363.638L340.94,471.066L317.819,471.066L317.819,340.805L373.339,340.902C374.61,343.303 377.103,344.806 379.82,344.808C381.767,344.809 383.634,344.035 385.01,342.659C386.387,341.282 387.16,339.415 387.16,337.468C387.16,335.521 386.387,333.654 385.01,332.278C383.634,330.901 381.767,330.128 379.82,330.128C377.097,330.131 374.599,331.641 373.331,334.052L286.993,333.903L286.993,172.901ZM347.79,370.488L434.255,370.488C446.409,370.488 456.739,373.813 465.674,380.497C474.586,387.759 478.662,395.695 478.662,405.062C478.662,415.101 474.588,422.945 465.728,429.591C456.78,436.301 446.433,439.634 434.255,439.634L375.062,439.634C373.793,437.227 371.297,435.721 368.576,435.718C366.63,435.718 364.762,436.492 363.386,437.868C362.009,439.245 361.236,441.112 361.236,443.059C361.236,445.005 362.009,446.873 363.386,448.249C364.762,449.626 366.63,450.399 368.576,450.399C371.297,450.397 373.793,448.89 375.062,446.484L400.748,446.484L400.748,471.066L347.79,471.066L347.79,370.488Z" style="fill:rgb(36,98,233);fill-rule:nonzero;"/>
        </g>
        <g transform="matrix(0.197751,0,3.95703e-33,0.197751,1134.11,1340.24)">
            <path d="M609.392,449.905L609.392,535.467L207.621,535.467C205.955,538.643 202.667,540.636 199.081,540.636C193.749,540.635 189.428,536.313 189.428,530.981C189.428,525.65 193.749,521.327 199.081,521.327C202.846,521.333 206.266,523.527 207.839,526.949L335.535,526.949L335.535,496.944L264.535,496.944C262.834,500.013 259.603,501.92 256.094,501.92C250.762,501.921 246.44,497.598 246.44,492.266C246.44,486.934 250.762,482.612 256.094,482.612C259.938,482.617 263.412,484.9 264.941,488.427L335.535,488.427L335.535,104.168L418.368,104.168L418.368,449.905L609.392,449.905ZM310.42,104.168C315.751,104.169 320.073,108.49 320.073,113.822C320.068,117.566 317.899,120.969 314.507,122.554L314.507,441.352C317.876,442.912 320.035,446.284 320.04,449.997C320.039,455.267 315.767,459.538 310.497,459.538C305.229,459.537 300.958,455.266 300.957,449.997C300.96,446.485 302.894,443.258 305.989,441.597L305.989,122.389C302.785,120.733 300.766,117.43 300.766,113.822C300.766,108.49 305.088,104.168 310.42,104.168Z" style="fill:rgb(36,98,233);"/>
        </g>
    </g>
</svg>
